<svg height="430pt" viewBox="-8 0 430 430.08" width="430pt" xmlns="http://www.w3.org/2000/svg"><path d="m244.820312 79.675781c.078126-1.402343.214844-2.78125.214844-4.195312 0-41.6875-33.796875-75.480469-75.480468-75.480469-35.476563 0-65.15625 24.507812-73.230469 57.5-6.351563-7.894531-16.078125-12.953125-26.992188-12.953125-19.136719 0-34.644531 15.503906-34.644531 34.640625 0 1.785156.175781 3.53125.4375 5.238281-20.667969 9.292969-35.0859375 30.027344-35.0859375 54.152344 0 32.800781 26.5898435 59.394531 59.3945315 59.394531h178.171875c32.804687 0 59.394531-26.59375 59.394531-59.394531 0-30.351563-22.785156-55.34375-52.179688-58.902344zm0 0" fill="#8065c4"/><path d="m344.554688 423.253906h-209.6875v-150.1875h232.105468v127.765625c0 12.382813-10.035156 22.421875-22.417968 22.421875zm0 0" fill="#fff"/><path d="m344.554688 423.253906v-6.828125h-202.863282v-136.539062h218.457032v120.945312c-.015626 8.609375-6.984376 15.578125-15.59375 15.59375v13.652344c16.15625-.003906 29.238281-13.09375 29.246093-29.246094v-127.765625c0-1.800781-.730469-3.554687-2-4.828125-1.273437-1.269531-3.03125-2-4.828125-2h-232.105468c-1.796876 0-3.558594.730469-4.828126 2-1.269531 1.273438-2 3.027344-2 4.828125v150.1875c0 1.820313.710938 3.535156 2 4.824219 1.292969 1.292969 3.003907 2 4.828126 2h209.6875zm0 0" fill="#54596e"/><path d="m250.921875 102.398438-155.34375 161.328124c-3.515625 3.394532-1.113281 9.339844 3.773437 9.339844h303.140626c4.886718 0 7.285156-5.945312 3.773437-9.339844zm0 0" fill="#9af43b"/><g fill="#54596e"><path d="m250.921875 102.398438-4.917969-4.734376-155.34375 161.324219 4.917969 4.738281-4.742187-4.914062c-2.492188 2.375-3.785157 5.695312-3.757813 8.773438.011719 3.15625 1.183594 6.125 3.320313 8.4375 2.113281 2.3125 5.417968 3.890624 8.949218 3.867187h303.140625c3.53125.027344 6.832031-1.546875 8.945313-3.863281 2.140625-2.3125 3.316406-5.28125 3.324218-8.4375.03125-3.074219-1.253906-6.410156-3.769531-8.789063l-4.726562 4.925781 4.917969-4.734374-155.34375-161.328126c-1.28125-1.335937-3.066407-2.089843-4.914063-2.089843-1.851563 0-3.636719.753906-4.917969 2.089843l4.917969 4.734376-4.917969 4.734374 155.339844 161.324219.191406.191407 1.015625-1.0625-1.445312.003906.429687 1.058594 1.015625-1.0625-1.445312.003906h1.277343l-.9375-.871094-.339843.871094h1.277343l-.9375-.871094 1.042969.96875v-1.449219l-1.042969.480469 1.042969.96875v-1.449219h-303.136719v1.453125l1.042969-.96875-1.042969-.484375v1.453125l1.042969-.96875-.929687.867188h1.269531l-.339844-.867188-.929687.867188h1.269531-1.429687l1.011718 1.046875.417969-1.046875h-1.429687l1.011718 1.046875.179688-.175781 155.339844-161.328126-4.914063-4.734374-4.917969 4.734374zm0 0"/><path d="m186.761719 198.246094c3.003906 7.132812 10.070312 12.128906 18.296875 12.136718 7.851562-.003906 14.660156-4.558593 17.867187-11.179687 1.648438-3.394531.234375-7.476563-3.15625-9.125s-7.476562-.238281-9.121093 3.15625c-1.019532 2.070313-3.125 3.5-5.589844 3.5-2.570313.003906-4.769532-1.570313-5.71875-3.800781-1.46875-3.472656-5.472656-5.097656-8.945313-3.632813-3.472656 1.46875-5.097656 5.472657-3.632812 8.949219zm0 0"/><path d="m299.246094 192.933594c-.953125 2.234375-3.152344 3.804687-5.722656 3.800781-2.460938.003906-4.570313-1.425781-5.585938-3.5-1.652344-3.394531-5.738281-4.804687-9.128906-3.15625-3.390625 1.652344-4.800782 5.734375-3.152344 9.128906 3.207031 6.617188 10.019531 11.171875 17.867188 11.175781 8.226562-.003906 15.292968-5.007812 18.296874-12.132812 1.46875-3.472656-.160156-7.476562-3.628906-8.945312-3.472656-1.464844-7.476562.160156-8.945312 3.632812zm0 0"/></g><path d="m264.574219 314.027344h54.613281v109.226562h-54.613281zm0 0" fill="#fff35f"/><path d="m319.1875 423.253906v-6.828125h-47.789062v-95.574219h40.960937v102.402344h6.828125v-6.828125 6.828125h6.824219v-109.226562c0-1.800782-.726563-3.558594-2-4.832032-1.269531-1.269531-3.027344-1.996093-4.824219-1.996093h-54.613281c-1.796875 0-3.558594.726562-4.828125 1.996093-1.269532 1.273438-2 3.03125-2 4.832032v109.226562c0 1.796875.730468 3.550782 2 4.824219 1.273437 1.269531 3.03125 2 4.828125 2h54.613281c1.796875 0 3.554688-.730469 4.824219-2 1.273437-1.273437 2-3.027344 2-4.824219zm0 0" fill="#54596e"/><path d="m175.828125 314.027344h47.785156v47.785156h-47.785156zm0 0" fill="#fff35f"/><path d="m223.613281 361.8125v-6.824219h-40.960937v-34.140625h34.132812v40.964844h6.828125v-6.824219 6.824219h6.828125v-47.785156c0-1.800782-.730468-3.558594-2-4.832032-1.273437-1.269531-3.03125-1.996093-4.828125-1.996093h-47.785156c-1.796875 0-3.558594.726562-4.828125 1.996093-1.269531 1.273438-2 3.03125-2 4.832032v47.785156c0 1.824219.710938 3.535156 2 4.828125 1.289062 1.289063 3.003906 1.996094 4.828125 1.996094h47.785156c1.824219 0 3.535157-.707031 4.828125-1.996094 1.289063-1.292969 2-3.003906 2-4.828125zm0 0" fill="#54596e"/><path d="m237.265625 354.988281h-75.09375c-3.769531 0-6.824219 3.050781-6.824219 6.824219 0 3.769531 3.054688 6.828125 6.824219 6.828125h75.09375c3.769531 0 6.828125-3.058594 6.828125-6.828125 0-3.773438-3.058594-6.824219-6.828125-6.824219" fill="#54596e"/><path d="m210.804688 230.34375c8.980468 9.75 23.648437 15.355469 40.117187 15.414062 16.300781-.054687 30.835937-5.554687 39.84375-15.128906 2.566406-2.761718 2.402344-7.082031-.359375-9.644531s-7.078125-2.402344-9.644531.359375c-5.433594 5.96875-16.707031 10.816406-29.839844 10.765625-13.269531.054687-24.632813-4.898437-30.011719-10.949219-2.535156-2.792968-6.855468-2.996094-9.644531-.460937-2.789063 2.539062-2.996094 6.855469-.460937 9.648437zm0 0" fill="#54596e"/><path d="m106.496094 132.113281-27.003906-.132812v-56.886719l-48.730469 74.320312c-1.484375 2.214844.101562 5.324219 2.769531 5.324219h27v56.886719l48.730469-74.320312c1.488281-2.210938-.097657-5.191407-2.765625-5.191407zm0 0" fill="#ffd578"/><path d="m106.496094 132.113281.035156-6.828125-20.210938-.097656v-50.09375c0-3.015625-1.988281-5.679688-4.871093-6.542969-2.886719-.859375-6.015625.277344-7.664063 2.800781l-48.730468 74.320313 5.707031 3.742187-5.660157-3.816406c-1.175781 1.730469-1.746093 3.777344-1.738281 5.683594.015625 2.65625.984375 5.082031 2.726563 7.003906 1.714844 1.914063 4.457031 3.300782 7.4375 3.28125h20.175781v50.0625c0 3.011719 1.992187 5.679688 4.875 6.539063 2.886719.859375 6.011719-.28125 7.660156-2.800781l48.730469-74.320313-5.707031-3.738281 5.671875 3.800781c1.152344-1.703125 1.738281-3.746094 1.726562-5.65625-.007812-2.683594-1.039062-5.152344-2.824218-7.035156-1.761719-1.882813-4.472657-3.148438-7.339844-3.128907h.03125l-.03125 6.824219v6.824219-3.515625l-2.535156 2.421875c.585937.644531 1.628906 1.113281 2.535156 1.09375v-3.515625l-2.535156 2.421875 2.507812-2.398438-3.460938.003907c.007813.949219.347657 1.75.953126 2.394531l2.507812-2.398438-3.464844.003907h3.484375l-2.898437-1.945313c-.367188.527344-.59375 1.292969-.585938 1.945313h3.484375l-2.898437-1.945313-.039063.058594-36.195312 55.199219v-34.023438c0-1.800781-.726563-3.554687-2-4.828125-1.269531-1.269531-3.027344-2-4.824219-2h-27v3.5625l2.628906-2.410156c-.535156-.625-1.613281-1.171875-2.628906-1.152344v3.5625l2.628906-2.410156-2.421875 2.214844h3.277344c-.011719-.886719-.296875-1.585938-.859375-2.214844l-2.417969 2.214844h3.277344-3.484375l2.890625 1.949218c.386719-.5625.601563-1.316406.59375-1.949218h-3.484375l2.890625 1.949218.046875-.074218 36.195312-55.203125v34.027343c0 3.746094 3.046876 6.804688 6.792969 6.824219l27.003907.132813h.035156zm0 0" fill="#54596e"/><path d="m188.417969 70.671875-27.003907-.132813v-56.886718l-48.730468 74.320312c-1.488282 2.214844.101562 5.328125 2.765625 5.328125h27.003906v56.886719l48.730469-74.320312c1.484375-2.214844-.097656-5.195313-2.765625-5.195313zm0 0" fill="#ffd578"/><path d="m188.417969 70.671875.03125-6.824219-20.207031-.101562v-50.09375c0-3.011719-1.988282-5.679688-4.875-6.542969-2.882813-.859375-6.011719.28125-7.664063 2.800781l-48.726563 74.320313 5.707032 3.742187-5.660156-3.816406c-1.175782 1.730469-1.75 3.777344-1.738282 5.683594.011719 2.65625.984375 5.085937 2.722656 7.003906 1.714844 1.914062 4.460938 3.300781 7.441407 3.28125h20.175781v50.0625c0 3.011719 1.988281 5.679688 4.875 6.539062 2.882812.863282 6.007812-.28125 7.660156-2.800781l48.730469-74.316406-5.710937-3.742187 5.671874 3.800781c1.152344-1.703125 1.738282-3.746094 1.726563-5.65625-.007813-2.679688-1.035156-5.152344-2.820313-7.03125-1.765624-1.886719-4.476562-3.152344-7.34375-3.128907h.035157l-.03125 6.820313v6.824219-3.515625l-2.535157 2.421875c.585938.648437 1.625 1.113281 2.535157 1.09375v-3.515625l-2.535157 2.421875 2.507813-2.394532h-3.464844c.007813.949219.347657 1.75.953125 2.394532l2.507813-2.394532h-3.460938 3.488281l-2.902343-1.945312c-.367188.53125-.59375 1.292969-.585938 1.945312h3.488281l-2.902343-1.945312-.039063.058594-36.191406 55.203125v-34.027344c0-1.800781-.730469-3.554687-2.003906-4.828125-1.269532-1.269531-3.027344-1.996094-4.824219-1.996094h-27.003906v3.554688l2.628906-2.40625c-.535156-.625-1.609375-1.167969-2.628906-1.148438v3.554688l2.628906-2.40625-2.421875 2.21875h3.28125c-.015625-.890625-.296875-1.589844-.859375-2.21875l-2.421875 2.21875h3.277344-3.484375l2.890625 1.945312c.390625-.5625.605468-1.316406.59375-1.945312h-3.484375l2.890625 1.945312.050781-.074218 36.195313-55.203126v34.03125c0 3.746094 3.042968 6.800782 6.792968 6.824219l27.003906.132813h.03125v-6.824219zm0 0" fill="#54596e"/><path d="m237.265625 416.425781h-184.320313c-3.769531 0-6.824218 3.054688-6.824218 6.828125 0 3.769532 3.054687 6.824219 6.824218 6.824219h184.320313c3.769531 0 6.828125-3.054687 6.828125-6.824219 0-3.773437-3.058594-6.828125-6.828125-6.828125" fill="#54596e"/></svg>